<svg xmlns="http://www.w3.org/2000/svg" id="Full_Logo" data-name="Full Logo" viewBox="0 0 400 160"><defs><style>.cls-1{fill:#00073a}.cls-2{fill:#204bd1}</style></defs><g id="tadema"><path id="t" d="M146.86 48.32v13.13c0 3.18 2.74 3.48 7.64 3.18v10.09c-14.54 1.48-18.76-2.9-18.76-13.27V48.32h-5.93V37.65h5.93v-7l11.12-3.34v10.34h7.64v10.67Z" class="cls-1"/><path id="a" d="M198.09 37.65v37.07H187v-3.49c-2.45 2.82-6.08 4.52-11.05 4.52-9.71 0-17.72-8.52-17.72-19.57s8-19.57 17.72-19.57c5 0 8.6 1.71 11.05 4.52v-3.48ZM187 56.18c0-5.56-3.71-9-8.83-9s-8.82 3.48-8.82 9 3.71 9.05 8.82 9.05 8.83-3.49 8.83-9.05" class="cls-1"/><path id="d" d="M243.08 22.82v51.9H232v-3.49c-2.45 2.82-6.08 4.52-11.05 4.52-9.71 0-17.71-8.52-17.71-19.57s8-19.57 17.71-19.57c5 0 8.6 1.71 11.05 4.52V22.82ZM232 56.18c0-5.56-3.71-9-8.82-9s-8.82 3.48-8.82 9 3.7 9.05 8.82 9.05 8.82-3.49 8.82-9.05" class="cls-1"/><path id="e" d="M268.58 65.82a9.66 9.66 0 0 0 7.11-2.82l8.9 5.12c-3.63 5-9.12 7.63-16.16 7.63-12.68 0-20.54-8.52-20.54-19.57s8-19.57 19.72-19.57c10.83 0 18.83 8.38 18.83 19.57a22 22 0 0 1-.44 4.45h-26.32c1.41 3.85 4.82 5.19 8.9 5.19m6.82-13.49a7.64 7.64 0 0 0-7.86-5.86c-4.23 0-7.05 2.08-8.08 5.86Z" class="cls-1"/><g id="m"><path d="M302.37 42.1c1.71-2.52 5-4.45 9.94-4.45a11 11 0 0 1 9.69 4.89c2.08-3 5.49-4.89 10.75-4.89 8.53 0 14.09 6.08 14.09 15.34v22.76h-11.11V54c0-3.71-1.77-6.08-5.33-6.08s-5.79 2.59-5.79 7v20.9h-11.12V54c0-3.71-1.77-6.08-5.33-6.08-3.71 0-5.79 2.59-5.79 7" class="cls-1"/><path d="M302.68 75.75h-11.13v-38.1h11.13" class="cls-1"/></g><path id="a-2" d="M390.74 37.65v37.07h-11.12v-3.49c-2.45 2.82-6.08 4.52-11.05 4.52-9.71 0-17.72-8.52-17.72-19.57s8-19.57 17.72-19.57c5 0 8.6 1.71 11.05 4.52v-3.48Zm-11.12 18.53c0-5.56-3.71-9-8.83-9s-8.82 3.48-8.82 9 3.71 9.05 8.82 9.05 8.83-3.49 8.83-9.05" class="cls-1" data-name="a"/></g><g id="_.dev" data-name=".dev"><rect width="14.09" height="14.09" x="244.55" y="118.09" class="cls-2" rx="3.23"/><path d="M302.69 79.24v51.9h-11.11v-3.49c-2.45 2.82-6.08 4.53-11.05 4.53-9.71 0-17.72-8.53-17.72-19.58S270.82 93 280.53 93c5 0 8.6 1.71 11.05 4.52V79.24Zm-11.11 33.36c0-5.56-3.71-9-8.83-9s-8.82 3.48-8.82 9 3.71 9.05 8.82 9.05 8.83-3.49 8.83-9.05M329.68 122.24a9.65 9.65 0 0 0 7.12-2.82l8.89 5.12c-3.63 5-9.11 7.64-16.16 7.64-12.67 0-20.53-8.53-20.53-19.58S317 93 328.72 93c10.82 0 18.83 8.38 18.83 19.57a21.3 21.3 0 0 1-.45 4.45h-26.32c1.41 3.89 4.82 5.22 8.9 5.22m6.82-13.49a7.63 7.63 0 0 0-7.86-5.86c-4.22 0-7 2.08-8.08 5.86ZM390.11 94.07l-14.58 37.07h-13.4l-14.58-37.07h13.08l8.2 23.5 8.17-23.5Z" class="cls-2"/></g><g id="IconGroup"><rect width="27.43" height="27.43" x="9.26" y="28.86" class="cls-1" rx="6.76"/><rect width="27.43" height="27.43" x="46.69" y="28.86" class="cls-1" rx="6.76"/><rect width="27.43" height="27.43" x="84.12" y="28.86" class="cls-1" rx="6.76"/><rect width="27.43" height="27.43" x="46.69" y="66.29" class="cls-1" rx="6.76"/><rect width="27.43" height="27.43" x="46.69" y="103.71" class="cls-1" rx="6.29"/></g></svg>